<!--
  ~ Password Management Servlets (PWM)
  ~ http://www.pwm-project.org
  ~
  ~ Copyright (c) 2006-2009 Novell, Inc.
  ~ Copyright (c) 2009-2018 The PWM Project
  ~
  ~ This program is free software; you can redistribute it and/or modify
  ~ it under the terms of the GNU General Public License as published by
  ~ the Free Software Foundation; either version 2 of the License, or
  ~ (at your option) any later version.
  ~
  ~ This program is distributed in the hope that it will be useful,
  ~ but WITHOUT ANY WARRANTY; without even the implied warranty of
  ~ MERCHANTABILITY or FITNESS FOR A PARTICULAR PURPOSE.  See the
  ~ GNU General Public License for more details.
  ~
  ~ You should have received a copy of the GNU General Public License
  ~ along with this program; if not, write to the Free Software
  ~ Foundation, Inc., 59 Temple Place, Suite 330, Boston, MA  02111-1307  USA
  -->

<svg xmlns="http://www.w3.org/2000/svg" viewBox="0 0 72 72"><title>m_brand</title><path d="M65,43.46H55.4V35.75a1,1,0,0,0-1-1H37.48V28.36H47.92a1.5,1.5,0,0,0,1.5-1.5V8.91a1.5,1.5,0,0,0-1.5-1.5H25.18a1.5,1.5,0,0,0-1.5,1.5V26.86a1.5,1.5,0,0,0,1.5,1.5H35.48v6.39H18.55a1,1,0,0,0-1,1v7.71H7.93A1.5,1.5,0,0,0,6.43,45V62.9a1.5,1.5,0,0,0,1.5,1.5H29.17a1.5,1.5,0,0,0,1.5-1.5V45a1.5,1.5,0,0,0-1.5-1.5H19.55V36.75H53.4v6.71H43.78a1.5,1.5,0,0,0-1.5,1.5V62.9a1.5,1.5,0,0,0,1.5,1.5H65a1.5,1.5,0,0,0,1.5-1.5V45A1.5,1.5,0,0,0,65,43.46Zm-38.34-33H46.42V25.36H26.68V10.41Zm1,51H9.43V46.46H27.67V61.4Zm35.85,0H45.28V46.46H63.52V61.4Z" fill="gray"/></svg>