<svg xmlns="http://www.w3.org/2000/svg" viewBox="0 0 72 72"><title>1-icons_expanded</title><path d="M36,46.32A10.37,10.37,0,1,1,46.45,36,10.4,10.4,0,0,1,36,46.32Zm0-17.38a7,7,0,1,0,7.07,7A7.05,7.05,0,0,0,36,28.93Z" fill="gray"/><path d="M54.43,39.26a3.35,3.35,0,0,0-2.52,2.18,16.94,16.94,0,0,1-.75,1.8,3.32,3.32,0,0,0,.23,3.32L55,51.6l-3.24,3.22-5.08-3.6A3.38,3.38,0,0,0,43.37,51a17.06,17.06,0,0,1-1.81.75,3.35,3.35,0,0,0-2.19,2.5l-1,6H33.75l-1-6a3.35,3.35,0,0,0-2.19-2.5A17.16,17.16,0,0,1,28.72,51a3.37,3.37,0,0,0-3.33.23L20.33,54.8l-3.24-3.22,3.59-5a3.34,3.34,0,0,0,.23-3.31,16.86,16.86,0,0,1-.75-1.8,3.36,3.36,0,0,0-2.52-2.18l-6.46-1V33.68l6.46-1a3.36,3.36,0,0,0,2.52-2.18,16.62,16.62,0,0,1,.75-1.8,3.32,3.32,0,0,0-.23-3.31L17,20.25,20.25,17l5.14,3.66a3.38,3.38,0,0,0,3.33.23,17,17,0,0,1,1.81-.75,3.35,3.35,0,0,0,2.19-2.5l1-6.33h4.58l1,6.33a3.35,3.35,0,0,0,2.2,2.5,16.79,16.79,0,0,1,1.81.75,3.38,3.38,0,0,0,3.33-.23L51.85,17l3.24,3.22-3.7,5.13a3.34,3.34,0,0,0-.23,3.31,16.84,16.84,0,0,1,.76,1.8,3.35,3.35,0,0,0,2.52,2.18l6,1v4.55Zm6.79-9.08L55.87,29.1a21,21,0,0,0-.94-2.24l3-4.53a3.47,3.47,0,0,0-.44-4.39l-3.37-3.35a3.51,3.51,0,0,0-4.42-.44l-4.56,3a21.22,21.22,0,0,0-2.26-.93L41.85,10.9a3.49,3.49,0,0,0-3.43-2.8H33.66a3.5,3.5,0,0,0-3.43,2.8l-1.07,5.34a21.23,21.23,0,0,0-2.26.93l-4.56-3a3.51,3.51,0,0,0-4.42.44l-3.37,3.35a3.47,3.47,0,0,0-.44,4.39l3,4.53a20.8,20.8,0,0,0-.94,2.25l-5.37,1.07A3.49,3.49,0,0,0,8,33.59v4.73a3.49,3.49,0,0,0,2.81,3.41l5.36,1.07A21,21,0,0,0,17.15,45l-3,4.53A3.47,3.47,0,0,0,14.56,54l3.37,3.35a3.51,3.51,0,0,0,4.42.44l4.56-3a20.7,20.7,0,0,0,2.26.93L30.23,61a3.5,3.5,0,0,0,3.43,2.8h4.76A3.5,3.5,0,0,0,41.85,61l1.08-5.33a21.24,21.24,0,0,0,2.26-.93l4.56,3a3.51,3.51,0,0,0,4.42-.44L57.53,54A3.47,3.47,0,0,0,58,49.58l-3-4.53a20.64,20.64,0,0,0,.94-2.25l5.36-1.07A3.49,3.49,0,0,0,64,38.32V33.59A3.49,3.49,0,0,0,61.23,30.17Z" fill="gray" fill-rule="evenodd"/></svg>