<!--
  ~ Password Management Servlets (PWM)
  ~ http://www.pwm-project.org
  ~
  ~ Copyright (c) 2006-2009 Novell, Inc.
  ~ Copyright (c) 2009-2017 The PWM Project
  ~
  ~ This program is free software; you can redistribute it and/or modify
  ~ it under the terms of the GNU General Public License as published by
  ~ the Free Software Foundation; either version 2 of the License, or
  ~ (at your option) any later version.
  ~
  ~ This program is distributed in the hope that it will be useful,
  ~ but WITHOUT ANY WARRANTY; without even the implied warranty of
  ~ MERCHANTABILITY or FITNESS FOR A PARTICULAR PURPOSE.  See the
  ~ GNU General Public License for more details.
  ~
  ~ You should have received a copy of the GNU General Public License
  ~ along with this program; if not, write to the Free Software
  ~ Foundation, Inc., 59 Temple Place, Suite 330, Boston, MA  02111-1307  USA
  -->

<svg xmlns="http://www.w3.org/2000/svg" viewBox="0 0 72 72"><title>1-icons_expanded</title><path d="M31.35,32.85H8.76a1.5,1.5,0,0,1-1.5-1.5V8.91a1.5,1.5,0,0,1,1.5-1.5H31.35a1.5,1.5,0,0,1,1.5,1.5V31.35A1.5,1.5,0,0,1,31.35,32.85Zm-21.09-3H29.85V10.41H10.26V29.85Z" fill="gray"/><path d="M63,32.85H40.41a1.5,1.5,0,0,1-1.5-1.5V8.91a1.5,1.5,0,0,1,1.5-1.5H63a1.5,1.5,0,0,1,1.5,1.5V31.35A1.5,1.5,0,0,1,63,32.85Zm-21.09-3H61.5V10.41H41.91V29.85Z" fill="gray"/><path d="M31.35,64.5H8.76A1.5,1.5,0,0,1,7.26,63V40.56a1.5,1.5,0,0,1,1.5-1.5H31.35a1.5,1.5,0,0,1,1.5,1.5V63A1.5,1.5,0,0,1,31.35,64.5Zm-21.09-3H29.85V42.06H10.26V61.5Z" fill="gray"/><path d="M63,64.5H40.41a1.5,1.5,0,0,1-1.5-1.5V40.56a1.5,1.5,0,0,1,1.5-1.5H63a1.5,1.5,0,0,1,1.5,1.5V63A1.5,1.5,0,0,1,63,64.5Zm-21.09-3H61.5V42.06H41.91V61.5Z" fill="gray"/></svg>