<svg xmlns="http://www.w3.org/2000/svg" viewBox="0 0 72 72"><title>1-icons_expanded</title><path d="M63,17.65H8.9a1.5,1.5,0,0,1-1.5-1.5V9a1.5,1.5,0,0,1,1.5-1.5H63A1.5,1.5,0,0,1,64.49,9v7.14A1.5,1.5,0,0,1,63,17.65Zm-52.59-3H61.49V10.51H10.4v4.14Z" fill="gray"/><path d="M63,64.45H8.9A1.5,1.5,0,0,1,7.4,63V55.81a1.5,1.5,0,0,1,1.5-1.5H63a1.5,1.5,0,0,1,1.5,1.5V63A1.5,1.5,0,0,1,63,64.45Zm-52.59-3H61.49V57.31H10.4v4.14Z" fill="gray"/><path d="M63,48.85H8.9a1.5,1.5,0,0,1-1.5-1.5V40.21a1.5,1.5,0,0,1,1.5-1.5H63a1.5,1.5,0,0,1,1.5,1.5v7.14A1.5,1.5,0,0,1,63,48.85Zm-52.59-3H61.49V41.71H10.4v4.14Z" fill="gray"/><path d="M63,33.25H8.9a1.5,1.5,0,0,1-1.5-1.5V24.61a1.5,1.5,0,0,1,1.5-1.5H63a1.5,1.5,0,0,1,1.5,1.5v7.14A1.5,1.5,0,0,1,63,33.25Zm-52.59-3H61.49V26.11H10.4v4.14Z" fill="gray"/></svg>