<svg xmlns="http://www.w3.org/2000/svg" viewBox="0 0 72 72"><title>1-icons_expanded</title><path d="M31.35,32.85H8.76a1.5,1.5,0,0,1-1.5-1.5V8.91a1.5,1.5,0,0,1,1.5-1.5H31.35a1.5,1.5,0,0,1,1.5,1.5V31.35A1.5,1.5,0,0,1,31.35,32.85Zm-21.09-3H29.85V10.41H10.26V29.85Z" fill="gray"/><path d="M63,32.85H40.41a1.5,1.5,0,0,1-1.5-1.5V8.91a1.5,1.5,0,0,1,1.5-1.5H63a1.5,1.5,0,0,1,1.5,1.5V31.35A1.5,1.5,0,0,1,63,32.85Zm-21.09-3H61.5V10.41H41.91V29.85Z" fill="gray"/><path d="M31.35,64.5H8.76A1.5,1.5,0,0,1,7.26,63V40.56a1.5,1.5,0,0,1,1.5-1.5H31.35a1.5,1.5,0,0,1,1.5,1.5V63A1.5,1.5,0,0,1,31.35,64.5Zm-21.09-3H29.85V42.06H10.26V61.5Z" fill="gray"/><path d="M63,64.5H40.41a1.5,1.5,0,0,1-1.5-1.5V40.56a1.5,1.5,0,0,1,1.5-1.5H63a1.5,1.5,0,0,1,1.5,1.5V63A1.5,1.5,0,0,1,63,64.5Zm-21.09-3H61.5V42.06H41.91V61.5Z" fill="gray"/></svg>