<svg xmlns="http://www.w3.org/2000/svg" viewBox="0 0 72 72"><title>m</title><path d="M16,43a6.89,6.89,0,1,1,6.89-6.89A6.9,6.9,0,0,1,16,43Zm0-11.09a4.19,4.19,0,1,0,4.19,4.19A4.2,4.2,0,0,0,16,31.91Z" fill="gray"/><path d="M36.22,43a6.89,6.89,0,1,1,6.89-6.89A6.9,6.9,0,0,1,36.22,43Zm0-11.09a4.19,4.19,0,1,0,4.19,4.19A4.2,4.2,0,0,0,36.22,31.91Z" fill="gray"/><path d="M56.09,43A6.89,6.89,0,1,1,63,36.11,6.9,6.9,0,0,1,56.09,43Zm0-11.09a4.19,4.19,0,1,0,4.19,4.19A4.2,4.2,0,0,0,56.09,31.91Z" fill="gray"/></svg>