<svg xmlns="http://www.w3.org/2000/svg" viewBox="0 0 72 72"><title>m_question_mark</title><path d="M32.31,47.66l-0.16-2c-0.47-4.12.93-8.79,4.82-13.37,3.5-4.2,5.44-7.23,5.44-10.73,0-4-2.49-6.61-7.39-6.69a13.82,13.82,0,0,0-7.85,2.41l-1.87-4.9A20.58,20.58,0,0,1,36.43,9.24c8.94,0,13,5.52,13,11.43,0,5.29-3,9.18-6.69,13.53-3.42,4-4.67,7.54-4.43,11.51l0.08,1.94H32.31Zm2.8,15.79a4.54,4.54,0,0,1-4.51-4.82,4.6,4.6,0,0,1,4.67-4.9c2.72,0,4.59,2,4.59,4.9a4.53,4.53,0,0,1-4.67,4.82H35.11Z" fill="gray"/><rect x="0.36" y="0.36" width="71.28" height="71.28" fill="none"/></svg>